<svg xmlns="http://www.w3.org/2000/svg" viewBox="0 0 600 600">
  <circle cx="300" cy="300" r="280" fill="#0f172a" />
  <g transform="translate(60, 135)" fill="#818cf8">
    <path d="M174.55,322.53c2.04.64,4.07-1.47,6.22-1.47,9.73.03,32.94-1.99,41.8-4.31l14.97-3.92c36.53-9.56,56.71-34.48,66.47-40.79l6.48-4.18c1.5-.97,3.49-1.4,3.1-3.6,24.74-17.28,42.42-37.18,58.58-63l-15.25-28.92,130.95-57.63-56.87,152.94-20.91-18.11c-38.37,42.77-89.99,70.94-147.08,79.11-27.56,3.94-63.1,1.48-88.45-6.12ZM469.14,129.4c0-.54-.44-.97-.97-.97s-.97.44-.97.97.44.97.97.97.97-.44.97-.97ZM466.42,130.71c0-.24-.2-.44-.44-.44s-.44.2-.44.44.2.44.44.44.44-.2.44-.44ZM383.83,208.74c11.34-14.57,22.98-26.15,35.16-38.53,14.27-14.52,29-26.86,46.15-38.88-12.13,3.33-21.6,9.29-32.65,13.99l-66.06,30.27,17.41,33.14Z"/>
    <path d="M313.58,264.27c.39,2.19-1.6,2.63-3.1,3.6l-6.48,4.18c-9.76,6.31-29.93,31.22-66.47,40.79l-14.97,3.92c-8.86,2.32-32.07,4.33-41.8,4.31-2.15,0-4.19,2.11-6.22,1.47-1.06-.33-2.3.03-3.38-.21.32-.63-.6-.49-.95-.58-47.26-11.89-92.75-32.29-133.24-59.96-13.15-8.99-25.79-17.93-36.98-29.94,32.36,17.54,62.86,33.43,96.93,44.49,61.81,20.05,127.76,27.24,189.1,2.25,9.97-4.06,19.15-8.44,27.55-14.31Z"/>
    <path d="M171.16,322.32c-.39-.09-.86-.08-.95-.58.35.09,1.27-.06.95.58Z"/>
    <path d="M383.83,208.74l-17.41-33.14,66.06-30.27c11.05-4.7,20.53-10.66,32.65-13.99-17.15,12.02-31.88,24.35-46.15,38.88-12.17,12.39-23.81,23.97-35.16,38.53Z"/>
  </g>
  <g transform="translate(60, 135)" fill="#e0e7ff">
    <path d="M154.65,273.52l-.26-1.84.12-230.68,70.37-.27c1.51,0,2.64-.79,3.56.13.74.74,1.18,1.33,1.18,3.07v226.86c0,2.24-1.02,3.9-2.93,4.3-6.35,1.32-12.43,2.95-18.89,3.77-17.98,2.28-36.86.5-53.17-5.34Z"/>
    <path d="M144.13,271.5c-5.65-1.84-11.13-1.03-16.51-1.89l-12.69-2.03c-14.18-2.27-27.18-7.39-40.08-13.12-4.1-1.82-5.01-3.33-5.01-8.12l.1-145.62h73.08c2.57,0,2.96,3.21,1.89,5.26l.04,156.99c0,3.07.94,4.88-.81,8.53Z"/>
    <path d="M294.28,257.79c-17.11,8.91-35.44,14.72-55.12,15.01l-.03-270.8C240.79.17,242.97,0,245.41,0l69.06.13-.02,242.17c-6.8,5.64-13.17,10.13-20.15,14.41.13.63-.01.94,0,1.08Z"/>
  </g>
</svg>
